<?xml version="1.0" encoding="utf-8"?>
<!-- Generator: Adobe Illustrator 20.1.0, SVG Export Plug-In . SVG Version: 6.00 Build 0)  -->
<svg version="1.1" id="Metro_de_Bilbao" xmlns="http://www.w3.org/2000/svg" xmlns:xlink="http://www.w3.org/1999/xlink" x="0px"
	 y="0px" viewBox="0 0 232 161.9" style="enable-background:new 0 0 232 161.9;" xml:space="preserve">
<style type="text/css">
	.st0{fill:#f1592a;}
</style>
<g>
	<path class="st0" d="M78.1,16.6L78.1,16.6c-35.4,0-64.3,28.9-64.3,64.3s28.9,64.3,64.3,64.3s64.3-28.9,64.3-64.3
		C142.3,45.5,113.4,16.6,78.1,16.6 M78.1,139.5L78.1,139.5c-31.9,0-57.9-26.3-57.9-58.6s26-58.6,57.9-58.6l0,0
		c31.8,0,57.8,26.3,57.8,58.6S109.9,139.5,78.1,139.5"/>
	<path class="st0" d="M113.4,132.9c-2.1,0-5,3.1-6.1,3.1c-26.3-2.3-47-26.7-47-55.2c0-28.6,20.9-52.2,47.5-55.1
		c1.8-0.2,3.7,3.4,5.6,3.5h0.1c2.2,0,4.3-3.7,6.4-3.4c26.2,3.3,46.5,26.7,46.5,55c0,28.4-20.7,52.9-46.9,55.2
		C118.4,136.1,115.5,132.9,113.4,132.9 M113.4,15c-36.3,0-65.9,29.6-65.9,65.9s29.6,65.9,65.9,65.9c36.2,0,65.9-29.6,65.9-65.9
		C179.3,44.6,149.7,15,113.4,15L113.4,15z"/>
	<path class="st0" d="M152,32.4c25.8,0,46.9,21.8,46.9,48.5c0,26.6-21.1,48.4-46.9,48.4c-25.9,0-47-21.8-47-48.4
		C105,54.2,126.2,32.4,152,32.4L152,32.4z M152,147.1c36.5,0,66.2-29.7,66.2-66.2S188.5,14.7,152,14.7l0,0
		c-36.5,0-66.2,29.7-66.2,66.2S115.5,147.1,152,147.1"/>
</g>
</svg>
